<?xml version="1.0" standalone="no"?>
<!DOCTYPE svg PUBLIC "-//W3C//DTD SVG 20010904//EN" "http://www.w3.org/TR/2001/REC-SVG-20010904/DTD/svg10.dtd">
<svg version="1.0" xmlns="http://www.w3.org/2000/svg"
 width="100%" height="100%" viewBox="0 0 1024 1024"
 preserveAspectRatio="xMidYMid meet">
<metadata>
Created by potrace 1.16, written by Peter Selinger 2001-2019, inverted color behavior.
</metadata>

<defs>
  <mask id="invert-mask">
    <rect width="1024" height="1024" fill="#ffffff" />
    <g transform="translate(0,1024) scale(0.1,-0.1)" fill="#000000" stroke="none">
      <path d="M0 5120 l0 -5120 5120 0 5120 0 0 5120 0 5120 -5120 0 -5120 0 0
-5120z m6523 4537 c77 -35 167 -127 211 -215 59 -118 98 -236 187 -566 26 -98
52 -183 57 -188 4 -4 109 -35 233 -68 123 -33 301 -81 394 -106 94 -26 235
-64 315 -84 80 -21 260 -68 400 -104 285 -74 368 -108 443 -182 58 -57 92
-126 113 -224 25 -119 16 -183 -96 -678 -22 -97 -49 -215 -60 -262 -10 -47
-30 -137 -44 -200 -69 -316 -117 -539 -127 -580 -5 -25 -28 -128 -50 -230 -35
-165 -60 -276 -143 -653 -13 -59 -26 -110 -28 -112 -2 -3 -29 2 -59 10 -149
38 -249 64 -296 76 -29 7 -53 18 -53 24 0 12 61 287 156 695 64 278 111 486
154 675 16 72 49 218 74 325 24 107 56 247 71 310 14 63 35 154 47 202 36 153
25 207 -48 238 -52 23 -250 78 -789 222 -126 33 -286 76 -355 94 -69 19 -219
59 -335 89 -436 114 -706 184 -900 234 -405 105 -593 154 -730 191 -77 21
-160 43 -185 48 -25 6 -297 74 -605 151 -307 78 -585 144 -617 148 -71 7 -111
-8 -138 -52 -19 -31 -115 -410 -174 -690 -14 -66 -46 -208 -71 -315 -62 -266
-206 -904 -259 -1150 -14 -63 -43 -198 -66 -300 -36 -165 -59 -273 -155 -725
-14 -66 -34 -156 -45 -200 -31 -126 -320 -1525 -380 -1840 -10 -55 -39 -201
-64 -325 -70 -349 -116 -604 -116 -649 0 -76 19 -87 240 -137 107 -24 242 -55
300 -68 114 -27 474 -109 770 -176 102 -23 264 -60 360 -82 343 -80 367 -85
367 -74 0 6 11 52 23 101 19 72 23 113 22 209 l-2 119 45 56 c26 31 54 65 63
76 73 87 287 483 407 753 15 34 31 62 34 62 3 0 15 -24 25 -52 51 -147 199
-451 266 -548 9 -14 19 -30 21 -35 2 -6 43 -76 92 -156 48 -80 99 -175 113
-210 26 -64 27 -65 21 -254 -7 -201 -2 -240 40 -336 19 -43 23 -46 79 -58 32
-7 124 -28 204 -47 80 -19 175 -42 212 -51 36 -8 70 -14 76 -12 9 4 -35 187
-156 654 -56 214 -110 405 -232 815 -27 91 -57 199 -68 240 -19 69 -89 333
-127 475 -9 33 -27 98 -40 144 -42 145 -46 185 -30 291 50 320 77 522 89 656
12 143 16 157 51 231 94 193 143 337 165 478 20 129 32 123 75 -41 51 -194 29
-347 -72 -487 -40 -57 -52 -84 -63 -152 -5 -27 -20 -111 -34 -185 -44 -237
-76 -445 -76 -491 0 -47 21 -120 94 -324 74 -206 219 -669 295 -940 33 -118
67 -260 101 -420 11 -55 25 -118 30 -140 5 -22 17 -80 26 -130 15 -89 52 -248
120 -520 56 -226 23 -194 247 -242 105 -23 209 -44 231 -48 77 -13 119 28 145
140 6 28 25 109 42 180 16 72 43 191 59 265 16 74 58 266 95 425 36 160 82
360 101 445 20 85 44 191 54 235 11 44 30 131 44 193 21 101 22 112 8 108 -43
-12 -105 -27 -192 -46 -52 -12 -108 -25 -125 -31 -190 -60 -268 -89 -370 -139
-152 -76 -207 -116 -254 -190 -45 -69 -102 -238 -132 -387 -12 -60 -25 -114
-29 -122 -8 -15 -21 42 -65 274 -35 188 -104 458 -161 635 -25 80 -51 161 -56
180 -6 19 -30 88 -54 153 -52 141 -54 154 -19 131 36 -24 94 -13 150 27 63 46
336 229 542 364 181 118 296 217 323 278 31 70 6 141 -108 307 -93 135 -185
243 -352 415 -161 165 -191 209 -260 388 -51 130 -93 196 -141 219 -40 18
-179 40 -243 38 -96 -4 -96 -4 -42 46 100 92 214 124 327 91 55 -16 157 -84
194 -128 22 -26 92 -114 112 -139 133 -170 264 -283 545 -473 577 -388 1117
-571 1806 -613 61 -4 112 -9 112 -11 0 -26 -115 -195 -201 -296 -179 -209
-395 -353 -615 -409 l-89 -23 -31 -140 c-54 -243 -141 -627 -228 -1015 -46
-206 -137 -609 -201 -895 -135 -600 -155 -678 -196 -761 -40 -81 -126 -166
-209 -207 -60 -29 -73 -31 -165 -31 -91 1 -130 8 -430 82 -181 45 -346 86
-365 92 -41 11 -303 72 -710 166 -157 36 -341 79 -410 95 -187 44 -464 107
-560 129 -47 11 -166 38 -265 60 -329 76 -557 128 -855 194 -162 36 -333 74
-380 85 -91 22 -192 44 -385 86 -353 77 -428 107 -513 199 -99 109 -120 229
-83 471 23 150 111 590 230 1145 44 207 94 442 121 575 66 322 141 685 188
900 28 127 67 307 87 400 19 94 53 251 75 350 22 99 46 214 55 255 8 41 24
116 35 165 25 109 78 359 126 590 19 94 44 206 54 250 11 44 45 195 76 335 30
140 76 343 101 450 24 107 62 274 84 370 71 310 128 537 144 577 56 137 167
233 317 273 107 29 189 23 393 -29 83 -20 263 -66 401 -101 l251 -64 149 43
c135 38 231 67 499 151 166 52 775 237 875 266 28 9 83 13 145 11 84 -2 109
-7 158 -30z m-3597 -1124 c-14 -65 -41 -201 -61 -303 -19 -102 -62 -327 -95
-500 -34 -173 -69 -362 -80 -420 -10 -58 -30 -166 -45 -240 -14 -74 -32 -173
-40 -220 -9 -47 -26 -141 -40 -210 -20 -105 -67 -363 -105 -575 -5 -27 -25
-135 -45 -240 -39 -206 -55 -288 -86 -464 -11 -63 -26 -145 -34 -182 -8 -37
-28 -146 -45 -241 -38 -223 -45 -259 -130 -718 -147 -795 -162 -876 -169 -925
-5 -29 -10 -44 -14 -35 -7 18 -66 243 -217 840 -65 257 -317 1285 -435 1775
-20 83 -49 204 -65 270 -16 66 -68 282 -115 480 -48 198 -113 468 -145 600
-116 479 -119 511 -61 639 38 85 70 125 138 176 106 81 185 109 968 344 28 9
156 48 285 87 129 39 291 89 360 110 69 21 163 51 210 66 63 22 86 26 88 16 2
-7 -8 -65 -22 -130z m2698 -728 c-8 -83 -29 -166 -58 -224 -27 -52 -102 -125
-151 -147 -16 -7 -23 -13 -14 -14 20 0 33 -28 56 -120 25 -105 26 -406 0 -499
-35 -130 -92 -191 -198 -213 -47 -10 -71 -9 -135 4 -44 9 -88 19 -99 24 -15 5
-11 -3 13 -28 38 -40 116 -74 193 -84 55 -7 56 -9 79 -93 11 -41 57 -101 77
-101 4 0 20 20 35 45 34 55 80 85 133 85 47 0 180 -35 211 -55 12 -8 35 -17
52 -22 l32 -8 -103 -105 c-119 -123 -145 -146 -201 -171 -58 -26 -103 -24
-204 12 -113 40 -205 68 -377 114 -169 46 -265 85 -512 209 -103 51 -199 97
-212 101 -47 14 -3 25 100 26 119 0 192 -18 234 -56 15 -15 28 -25 29 -23 1 2
8 55 14 118 6 63 16 157 22 208 l11 93 -32 37 c-45 51 -80 133 -86 202 -6 57
-5 58 25 74 17 9 37 16 45 16 11 0 11 9 -4 53 -43 125 -32 226 34 313 80 105
164 141 361 155 267 18 466 61 566 122 34 20 58 29 62 23 4 -6 4 -37 2 -71z
m-1523 -1347 l34 -12 -30 -7 c-16 -4 -66 -8 -110 -9 l-80 -2 67 -14 c37 -7 91
-25 120 -40 76 -38 310 -226 297 -239 -3 -2 -66 15 -140 39 -218 70 -375 79
-499 30 -55 -22 -110 -92 -164 -209 -35 -75 -51 -97 -92 -128 -27 -20 -104
-78 -172 -129 -164 -122 -225 -189 -336 -371 -10 -16 -19 -27 -22 -25 -6 7 34
187 53 238 25 68 228 389 389 616 42 59 149 144 181 144 8 0 42 13 76 29 105
48 199 83 246 91 72 12 145 11 182 -2z m-58 -1095 c141 -194 266 -470 317
-703 11 -52 27 -115 34 -140 7 -25 19 -64 26 -87 15 -49 15 -50 -80 -247 -186
-389 -350 -858 -475 -1363 -31 -126 -72 -237 -120 -328 -59 -109 -54 -106
-133 -83 -85 26 -230 67 -612 173 -535 148 -523 143 -528 207 -2 20 29 195 69
389 39 195 76 377 81 404 12 63 109 543 148 730 45 220 109 545 116 598 3 26
10 47 14 47 5 0 38 -35 74 -77 109 -129 194 -200 601 -500 50 -37 121 -93 158
-125 146 -124 307 -213 345 -189 5 3 36 49 67 101 32 52 66 107 76 122 11 14
19 35 19 46 0 19 -131 216 -170 256 -18 18 -22 18 -87 3 -125 -29 -136 -29
-164 -4 -34 29 -99 117 -178 242 -35 55 -84 122 -109 150 -41 46 -148 126
-222 168 -18 10 -31 20 -28 22 2 2 67 -6 144 -19 105 -18 151 -22 190 -16 98
16 214 89 308 194 37 42 72 76 76 76 5 0 24 -21 43 -47z m2005 -260 c60 -36
209 -95 285 -114 52 -13 54 -15 32 -46 -9 -12 -34 -55 -57 -95 -93 -165 -174
-273 -221 -293 -21 -9 -41 -9 -66 -3 -85 22 -116 26 -128 16 -7 -5 -26 -35
-44 -66 -35 -63 -99 -146 -106 -138 -7 7 24 191 53 314 13 59 34 148 46 197
37 161 98 282 135 268 9 -4 41 -21 71 -40z m-3553 -3243 c77 -11 208 -32 290
-45 83 -13 254 -40 380 -60 499 -77 1663 -264 1695 -272 24 -5 23 -6 -10 -15
-61 -17 -920 -262 -1340 -383 -554 -160 -567 -163 -632 -175 -115 -21 -239 19
-321 105 -92 96 -125 194 -202 600 -25 132 -48 248 -51 259 -5 15 -2 17 23 12
15 -3 91 -14 168 -26z"/>
    </g>
  </mask>
</defs>

<rect width="1024" height="1024" fill="#7b2cbf" mask="url(#invert-mask)" />

</svg>
