<?xml version="1.0" standalone="no"?>
<!DOCTYPE svg PUBLIC "-//W3C//DTD SVG 20010904//EN"
 "http://www.w3.org/TR/2001/REC-SVG-20010904/DTD/svg10.dtd">
<svg version="1.0" xmlns="http://www.w3.org/2000/svg"
 width="519.000000pt" height="600.000000pt" viewBox="0 0 519.000000 600.000000"
 preserveAspectRatio="xMidYMid meet">
<g transform="translate(0.000000,600.000000) scale(0.100000,-0.100000)"
fill="#000000" stroke="none">
<path d="M3085 5875 c-33 -7 -161 -43 -283 -79 l-224 -67 -124 30 c-197 48
-248 54 -308 37 -57 -17 -119 -63 -141 -105 -22 -43 -61 -205 -181 -741 -39
-172 -57 -230 -70 -217 -2 1 4 29 11 62 31 134 126 658 123 677 -6 39 -30 43
-120 20 -131 -33 -605 -181 -662 -206 -66 -29 -130 -102 -153 -173 -17 -53
-17 -53 21 -215 62 -267 311 -1269 365 -1468 28 -102 58 -200 66 -218 19 -42
19 -105 0 -168 -40 -131 7 -263 111 -317 43 -22 564 -147 614 -147 11 0 20 -7
20 -15 0 -11 -7 -14 -22 -11 -267 56 -501 96 -554 96 -64 0 -68 -31 -29 -203
50 -221 116 -301 250 -300 60 0 253 52 640 171 195 60 235 77 235 96 0 32 2
32 390 -59 302 -71 330 -76 403 -77 48 0 76 6 99 19 49 28 95 95 117 171 25
82 271 1124 271 1147 0 10 19 24 48 36 117 51 159 76 211 128 88 88 135 185
100 206 -6 4 -61 11 -122 16 -251 20 -510 115 -698 257 -104 77 -151 121 -187
174 -45 65 -134 128 -182 128 -12 0 -48 16 -79 35 -71 44 -115 52 -164 31 -31
-12 -37 -13 -37 -1 0 7 12 23 26 34 34 26 40 59 43 210 1 99 6 134 21 169 23
51 26 120 7 146 -14 20 -10 20 -152 -4 -160 -26 -181 -31 -215 -55 -20 -14
-46 -43 -59 -65 -27 -48 -40 -152 -29 -222 5 -29 11 -77 15 -107 l6 -54 -35 7
c-47 9 -149 -24 -197 -62 -20 -16 -51 -33 -68 -36 -45 -10 -116 -76 -167 -156
-41 -63 -62 -87 -71 -78 -2 1 5 39 15 83 11 44 55 238 100 430 138 603 154
665 167 665 3 0 208 -50 457 -110 248 -61 649 -158 891 -217 242 -59 442 -108
444 -110 5 -3 -35 -182 -126 -563 -41 -173 -77 -338 -80 -366 -5 -47 -3 -53
18 -67 32 -20 172 -52 193 -44 9 4 24 24 33 44 15 38 164 660 202 850 23 111
27 216 10 260 -14 38 -75 100 -123 125 -22 11 -186 57 -365 102 l-326 82 -43
132 c-52 158 -83 200 -171 226 -64 19 -95 19 -176 1z m216 -60 c48 -31 64 -62
105 -204 18 -62 36 -117 41 -122 4 -4 134 -40 288 -79 373 -95 431 -114 476
-159 57 -56 67 -103 47 -220 -18 -103 -175 -788 -203 -883 -9 -32 -22 -58 -28
-58 -13 0 -160 39 -164 44 -2 2 13 70 32 152 61 253 143 614 165 723 16 85 18
107 8 117 -7 6 -83 27 -168 47 -85 20 -429 104 -765 186 -335 82 -677 164
-758 182 -143 32 -149 33 -162 15 -15 -20 -67 -231 -210 -851 -54 -231 -103
-438 -111 -460 -16 -47 -8 -60 14 -25 9 14 42 52 73 85 31 33 77 89 101 125
45 66 91 105 137 117 14 3 56 -4 100 -17 124 -37 131 -35 49 16 -43 27 -78 51
-78 55 0 3 33 16 74 28 69 20 77 21 104 7 16 -8 32 -22 35 -31 11 -27 27 -16
27 20 0 18 5 56 11 83 9 45 8 53 -15 97 -29 53 -32 75 -14 93 6 6 10 36 9 67
-1 53 1 58 41 101 l43 45 120 18 c66 10 138 26 159 35 22 9 41 15 43 12 8 -7
-19 -102 -37 -133 -17 -29 -19 -51 -17 -172 2 -129 0 -142 -19 -168 -21 -27
-24 -28 -113 -27 -95 1 -103 -5 -36 -26 60 -19 95 -39 95 -55 0 -7 7 -21 16
-29 14 -15 19 -14 58 9 24 14 49 25 57 25 31 0 89 -22 89 -33 0 -7 -20 -33
-45 -57 -24 -24 -43 -45 -41 -48 2 -2 27 8 55 23 65 32 130 42 173 25 40 -16
112 -83 128 -119 23 -51 232 -216 355 -278 71 -37 254 -100 355 -124 47 -12
134 -24 194 -27 l108 -7 -44 -60 c-61 -83 -119 -131 -208 -172 -41 -19 -85
-40 -97 -46 -13 -5 -25 -17 -27 -26 -3 -9 -64 -266 -136 -571 -72 -305 -139
-583 -151 -617 -33 -101 -79 -143 -156 -143 -66 0 -531 100 -1113 240 -135 32
-356 84 -493 115 -136 31 -273 65 -304 76 -130 45 -166 129 -127 304 8 39 35
167 60 285 91 436 287 1323 420 1900 104 449 118 483 215 515 60 20 84 17 290
-31 l145 -35 225 65 c367 106 423 113 500 61z m-1436 -352 c-12 -30 -209
-1043 -379 -1955 -28 -152 -54 -280 -58 -283 -11 -11 -448 1791 -448 1845 0
30 44 111 77 142 34 32 126 65 472 169 145 44 271 84 280 89 9 5 27 10 40 10
18 0 22 -4 16 -17z m-101 -779 c0 -16 -8 -63 -18 -104 -10 -41 -20 -84 -22
-95 -12 -64 -52 -226 -57 -232 -12 -11 10 128 38 242 15 64 24 114 32 183 6
48 28 53 27 6z m1296 -134 c0 -5 -5 -10 -11 -10 -5 0 -7 5 -4 10 3 6 8 10 11
10 2 0 4 -4 4 -10z m-1393 -332 c-3 -8 -6 -5 -6 6 -1 11 2 17 5 13 3 -3 4 -12
1 -19z m-15 -58 c-2 -16 -6 -30 -8 -30 -2 0 -4 14 -4 30 0 17 4 30 8 30 5 0 7
-13 4 -30z m-12 -69 c0 -6 -4 -12 -8 -15 -5 -3 -9 1 -9 9 0 8 4 15 9 15 4 0 8
-4 8 -9z m200 -1520 c124 -22 355 -63 515 -91 159 -28 291 -53 293 -55 4 -4
17 0 -258 -79 -411 -118 -580 -159 -633 -153 -87 8 -126 69 -178 277 -16 63
-29 125 -29 137 0 19 3 21 33 13 17 -5 133 -27 257 -49z m454 -28 c12 -2 39
-9 61 -15 22 -5 54 -10 70 -10 17 -1 24 -3 17 -5 -6 -3 -9 -9 -6 -14 3 -6 -4
-8 -18 -4 -78 17 -125 26 -168 30 -46 5 -109 23 -83 24 7 1 10 8 7 16 -5 13 1
12 47 -1 29 -9 62 -18 73 -21z m196 -53 c8 -5 11 -10 5 -10 -5 0 -17 5 -25 10
-8 5 -10 10 -5 10 6 0 17 -5 25 -10z"/>
<path d="M3087 4294 c-4 -4 -7 -21 -7 -38 -1 -17 -10 -56 -21 -86 -11 -30 -30
-79 -41 -109 -11 -30 -28 -114 -39 -187 l-19 -132 59 -198 c89 -300 96 -328
155 -619 78 -384 71 -363 116 -375 20 -5 66 -11 101 -12 l64 -3 41 165 c62
245 164 676 164 693 0 12 -11 12 -84 1 -114 -18 -185 -47 -240 -95 -51 -45
-106 -148 -106 -197 0 -17 -3 -37 -6 -46 -11 -29 -24 -17 -24 22 0 47 -62 293
-129 514 l-51 167 20 115 c11 63 31 147 45 187 17 51 25 92 24 138 0 69 -9
107 -22 95z m518 -966 c-127 -558 -172 -748 -179 -755 -6 -6 -127 15 -143 25
-12 7 -73 325 -73 378 0 17 7 37 14 44 8 6 22 33 32 58 54 154 78 189 151 226
43 21 130 45 171 45 29 1 32 -2 27 -21z"/>
<path d="M2229 4124 c-64 -65 -108 -82 -163 -64 -21 7 -40 10 -43 7 -2 -3 12
-21 34 -40 21 -19 53 -61 72 -94 73 -125 80 -133 109 -133 15 0 33 5 39 11 7
7 22 -4 52 -37 22 -26 41 -53 41 -61 0 -13 -40 -82 -68 -115 -13 -16 -17 -16
-61 7 -107 55 -342 234 -389 298 -17 22 -32 22 -32 0 0 -17 -76 -365 -156
-710 -55 -239 -55 -239 -6 -252 107 -29 376 -92 415 -97 l45 -7 30 59 c40 80
74 176 117 322 20 68 70 214 112 325 75 200 75 203 69 274 -7 85 -45 194 -87
246 -17 21 -41 56 -53 77 l-22 39 -55 -55z m126 -125 c33 -65 56 -162 53 -222
l-3 -52 -22 36 c-43 68 -69 89 -111 89 -27 0 -44 6 -59 23 -24 27 -73 111 -73
126 0 6 23 25 50 42 28 17 55 40 61 51 10 19 12 19 46 -13 19 -19 45 -55 58
-80z m-397 -253 c45 -36 87 -66 93 -66 5 0 33 -18 61 -41 100 -79 189 -109
218 -74 24 29 19 8 -25 -103 -24 -62 -58 -163 -75 -225 -75 -268 -113 -348
-168 -346 -15 0 -108 19 -207 42 -172 40 -180 43 -183 67 -3 29 24 166 110
557 55 250 64 281 78 269 8 -7 52 -43 98 -80z m426 -88 c-5 -7 -9 -24 -9 -37
0 -15 -6 -25 -17 -27 -10 -1 -18 0 -18 3 0 11 44 83 48 79 2 -3 0 -11 -4 -18z"/>
<path d="M2385 4149 c-4 -6 -5 -12 -2 -15 2 -3 7 2 10 11 7 17 1 20 -8 4z"/>
<path d="M3265 4015 c-50 -22 -52 -24 -89 -114 -21 -51 -36 -94 -34 -97 3 -2
21 20 41 49 19 30 60 81 91 115 31 33 53 63 49 65 -4 3 -31 -5 -58 -18z"/>
<path d="M3850 3611 c0 -6 4 -13 10 -16 6 -3 7 1 4 9 -7 18 -14 21 -14 7z"/>
<path d="M2629 3229 c-153 -269 -157 -278 -175 -377 -9 -51 -14 -95 -11 -98
12 -13 485 -120 493 -112 2 3 0 19 -5 36 -5 18 -13 78 -16 134 -4 57 -11 121
-16 144 -14 66 -170 404 -187 404 -4 0 -42 -59 -83 -131z m162 -106 l74 -158
3 -137 4 -137 -64 15 c-216 48 -295 68 -312 76 -37 19 -4 126 95 303 92 167
109 195 118 195 5 0 41 -71 82 -157z"/>
<path d="M3287 3339 c7 -7 15 -10 18 -7 3 3 -2 9 -12 12 -14 6 -15 5 -6 -5z"/>
<path d="M2226 2893 c-6 -14 -5 -15 5 -6 7 7 10 15 7 18 -3 3 -9 -2 -12 -12z"/>
<path d="M3560 2256 c0 -2 7 -7 16 -10 8 -3 12 -2 9 4 -6 10 -25 14 -25 6z"/>
<path d="M3175 2040 c-71 -15 -176 -39 -233 -54 -179 -45 -199 -61 -146 -117
l26 -28 -78 -81 c-44 -45 -86 -92 -94 -106 -29 -48 -38 -29 -42 86 -4 148 1
144 -181 148 -113 3 -146 0 -162 -12 -19 -14 -20 -28 -23 -479 l-3 -464 28
-18 c49 -33 275 -32 320 0 15 11 19 32 23 129 5 110 6 116 35 148 17 18 33 34
38 36 4 2 7 12 7 22 0 10 9 25 20 33 11 8 17 17 12 21 -4 4 -2 6 5 4 6 -2 11
1 11 6 0 10 22 26 36 26 9 0 -35 -61 -66 -92 -36 -36 -25 -59 158 -308 l114
-155 170 5 c199 6 206 9 172 73 -30 56 -350 484 -405 542 l-43 44 169 183
c222 240 336 367 347 389 14 25 -13 49 -53 48 -18 0 -90 -13 -162 -29z m179
-12 c-17 -21 -169 -187 -290 -318 -29 -30 -151 -163 -272 -295 l-221 -240 -1
-117 0 -118 -145 0 -145 0 0 455 0 455 145 0 146 0 -3 -170 c-2 -94 -1 -170 2
-170 3 0 63 68 135 150 71 82 130 148 131 147 1 -1 -2 -27 -7 -56 -4 -30 -7
-57 -4 -59 9 -9 45 80 45 113 0 26 -9 45 -35 74 -42 46 -43 51 -10 51 35 0
444 87 492 104 54 20 58 19 37 -6z m-528 -643 c-35 -35 -72 -51 -46 -20 7 8
19 15 27 15 10 0 13 6 9 16 -3 8 -2 12 3 9 5 -3 12 -1 16 5 3 5 11 10 16 10 5
0 -6 -16 -25 -35z m224 -205 c89 -118 184 -245 210 -281 l48 -66 -60 -7 c-103
-10 -233 -7 -250 7 -41 33 -268 354 -268 379 0 20 139 189 152 185 4 -1 80
-99 168 -217z"/>
<path d="M3503 1886 c-87 -21 -163 -65 -233 -136 -188 -187 -208 -447 -51
-661 60 -82 151 -150 238 -181 59 -20 86 -23 208 -22 150 1 206 13 300 69 63
36 147 133 191 219 21 42 41 76 44 76 3 0 5 -70 5 -155 0 -205 -5 -200 175
-200 176 0 173 -3 178 182 2 76 5 144 8 152 6 18 38 -15 171 -180 119 -148
137 -159 251 -159 101 0 119 12 132 92 11 68 13 578 4 750 -9 161 -6 158 -163
158 -167 0 -161 7 -168 -188 -3 -83 -9 -152 -13 -152 -10 0 -53 48 -122 136
-35 44 -85 108 -113 142 l-50 61 -112 0 c-66 1 -123 -4 -138 -11 -38 -17 -47
-64 -43 -216 3 -125 -2 -159 -17 -109 -15 47 -98 168 -146 211 -61 55 -174
112 -248 126 -72 13 -224 11 -288 -4z m335 -45 c109 -30 228 -136 289 -257 74
-151 50 -348 -59 -486 -33 -42 -141 -117 -212 -148 -60 -25 -186 -35 -290 -22
-163 21 -301 125 -373 279 -32 69 -33 77 -33 191 0 117 1 121 36 190 43 87
128 176 210 219 110 58 288 72 432 34z m805 -193 c86 -112 163 -212 172 -223
13 -18 14 3 15 203 l0 222 130 0 130 0 0 -455 0 -456 -112 5 -113 5 -40 48
c-34 42 -243 307 -290 368 -13 18 -15 -1 -14 -200 l1 -220 -141 -3 -141 -3 0
456 0 455 123 0 123 0 157 -202z m-433 -138 c0 -5 -5 -10 -11 -10 -5 0 -7 5
-4 10 3 6 8 10 11 10 2 0 4 -4 4 -10z m-3 -112 c-3 -7 -5 -2 -5 12 0 14 2 19
5 13 2 -7 2 -19 0 -25z m-4 -107 c3 -11 -1 -22 -8 -24 -8 -4 -10 3 -7 19 5 29
8 30 15 5z m361 -27 c3 -8 2 -12 -4 -9 -6 3 -10 10 -10 16 0 14 7 11 14 -7z"/>
<path d="M3554 1594 c-55 -36 -84 -82 -96 -156 -18 -105 26 -214 103 -253 48
-26 148 -19 209 13 69 35 93 80 98 180 5 89 -15 148 -63 191 -66 57 -183 69
-251 25z m213 -48 c46 -23 64 -64 64 -147 1 -125 -58 -192 -169 -192 -106 0
-160 53 -169 167 -4 49 -1 72 15 108 24 55 54 77 119 87 54 8 93 2 140 -23z"/>
<path d="M202 1883 c-46 -9 -47 -20 -47 -495 l0 -447 23 -23 c21 -22 31 -23
148 -23 125 0 126 0 150 28 22 26 24 36 24 142 l0 114 151 3 c135 3 152 5 165
22 17 24 20 236 4 266 -16 31 -78 41 -198 34 l-109 -6 -7 32 c-3 18 -6 35 -6
39 0 3 69 6 153 7 83 0 164 3 178 7 19 5 29 3 32 -7 3 -8 8 -99 12 -203 12
-414 17 -452 61 -472 31 -14 206 -15 255 -1 47 13 59 41 59 138 0 109 10 118
63 62 23 -25 65 -77 92 -115 62 -86 81 -94 238 -94 115 -1 144 5 175 35 10 11
16 10 32 -6 10 -10 36 -22 56 -26 57 -10 219 3 255 21 l31 16 -4 464 c-2 364
-6 467 -16 477 -18 18 -305 19 -323 1 -7 -7 -16 -34 -20 -60 -9 -56 -13 -819
-4 -833 3 -5 0 -7 -7 -4 -7 3 -46 55 -86 116 l-73 109 43 47 c24 26 55 70 68
97 22 44 25 63 25 160 0 96 -3 116 -25 160 -31 64 -121 155 -183 183 -63 30
-148 37 -430 37 -222 0 -239 -1 -252 -19 -14 -18 -15 -18 -42 0 -26 18 -52 19
-333 20 -168 1 -315 -1 -328 -3z m648 -153 l0 -120 -192 7 -193 6 0 -84 0 -84
168 3 167 3 0 -121 0 -121 -166 1 -167 2 -1 -139 -1 -138 -137 -3 -138 -3 0
456 0 455 330 0 330 0 0 -120z m620 109 c36 -5 83 -18 105 -28 54 -24 129
-103 163 -171 23 -47 27 -67 27 -140 0 -105 -17 -142 -97 -223 -68 -69 -72
-53 50 -224 l81 -113 -163 0 -163 0 -52 79 c-107 162 -105 161 -160 161 l-48
0 4 -120 4 -121 -146 3 -145 3 -3 453 -2 452 240 0 c132 0 269 -5 305 -11z
m680 -444 l0 -455 -145 0 -145 0 0 455 0 455 145 0 145 0 0 -455z m-1260 309
c0 -70 -4 -113 -9 -109 -6 3 -8 22 -6 43 2 20 4 70 4 110 1 39 3 72 6 72 3 0
5 -52 5 -116z"/>
<path d="M1417 1659 c7 -7 15 -10 18 -7 3 3 -2 9 -12 12 -14 6 -15 5 -6 -5z"/>
<path d="M1214 1510 l0 -112 98 4 c90 3 99 6 127 32 37 35 46 78 25 121 -20
42 -47 52 -159 60 l-90 7 -1 -112z m189 54 c17 -5 20 -16 19 -68 0 -42 -15
-50 -97 -54 l-75 -4 0 71 0 71 68 -5 c37 -3 75 -8 85 -11z"/>
<path d="M2826 892 c-3 -5 1 -9 9 -9 8 0 12 4 9 9 -3 4 -7 8 -9 8 -2 0 -6 -4
-9 -8z"/>
<path d="M273 761 c-122 -9 -118 -1 -118 -239 0 -173 2 -201 18 -225 l17 -27
2445 0 2445 0 17 27 c15 23 18 55 21 219 3 191 3 192 -22 220 l-24 29 -2359 1
c-1297 0 -2395 -2 -2440 -5z m4807 -241 l0 -210 -2445 0 -2445 0 0 210 0 210
2445 0 2445 0 0 -210z"/>
<path d="M3605 613 c-77 -40 -94 -86 -54 -149 22 -37 65 -51 122 -40 47 9 65
22 50 37 -9 9 -21 10 -47 2 -43 -13 -77 1 -90 39 -20 56 35 94 99 69 22 -9 45
-4 45 10 0 9 -42 33 -75 42 -11 3 -33 -1 -50 -10z"/>
<path d="M594 610 c-30 -12 -64 -58 -64 -86 0 -60 49 -104 117 -104 41 0 84
23 70 37 -5 4 -32 8 -60 8 -45 0 -53 3 -66 28 -15 24 -15 30 0 55 15 27 48 34
104 21 12 -2 20 2 23 12 6 29 -77 48 -124 29z"/>
<path d="M810 602 c-97 -48 -57 -182 54 -182 57 0 88 23 84 63 -4 38 -29 43
-38 8 -11 -47 -81 -45 -100 4 -21 56 32 100 93 77 33 -13 47 -8 47 14 0 34
-85 44 -140 16z"/>
<path d="M1138 604 c-15 -8 -32 -23 -38 -34 -13 -24 -13 -76 0 -101 26 -47
119 -64 161 -30 33 27 15 45 -29 29 -22 -8 -40 -9 -59 -2 -23 8 -29 16 -31 47
-5 58 11 70 80 63 62 -7 74 2 36 28 -28 20 -84 20 -120 0z"/>
<path d="M1545 610 c-9 -14 3 -182 13 -192 15 -15 42 7 42 37 0 37 11 36 63
-5 70 -56 104 -55 50 2 l-27 28 22 30 c26 34 28 63 6 80 -15 14 -163 30 -169
20z m124 -45 c23 -22 6 -47 -31 -43 -34 3 -46 23 -34 54 7 17 41 11 65 -11z"/>
<path d="M1770 514 l0 -100 63 4 c130 9 181 79 117 162 -17 22 -28 26 -99 30
l-81 5 0 -101z m116 61 c57 -11 53 -93 -6 -113 -51 -18 -60 -8 -60 65 0 56 2
64 18 59 9 -2 31 -7 48 -11z"/>
<path d="M2050 607 c-27 -14 -39 -61 -20 -81 6 -6 32 -18 57 -27 26 -8 48 -20
50 -26 7 -19 -47 -25 -79 -9 -33 17 -48 14 -48 -10 0 -29 99 -46 140 -24 28
15 43 46 31 68 -5 10 -35 26 -65 35 -37 12 -56 23 -56 34 0 13 9 15 55 9 49
-6 55 -4 55 13 0 29 -75 41 -120 18z"/>
<path d="M2570 613 c-42 -13 -60 -29 -70 -59 -30 -89 59 -160 154 -124 14 5
26 17 26 26 0 13 -6 15 -27 9 -49 -12 -77 -7 -95 15 -49 60 8 120 85 91 26
-10 50 -1 39 15 -18 27 -72 41 -112 27z"/>
<path d="M2770 603 c-40 -21 -65 -64 -56 -98 3 -13 18 -38 33 -55 25 -30 30
-32 81 -28 47 4 60 10 85 38 24 26 28 38 23 64 -15 73 -99 113 -166 79z m94
-39 c9 -8 16 -28 16 -44 0 -16 -7 -36 -16 -44 -18 -19 -65 -21 -82 -4 -16 16
-16 80 0 96 17 17 64 15 82 -4z"/>
<path d="M4060 613 c-1 -2 -1 -47 -1 -100 l-1 -98 74 3 c59 3 76 7 91 24 18
22 23 68 7 68 -6 0 -8 15 -4 39 4 27 2 41 -7 47 -12 8 -158 23 -159 17z m94
-33 c42 -15 33 -40 -13 -40 -46 0 -62 17 -36 37 22 16 18 15 49 3z m39 -89
c22 -22 -61 -47 -89 -27 -16 12 -16 16 -4 31 10 12 22 15 49 10 20 -4 40 -10
44 -14z"/>
<path d="M4700 607 c-18 -9 -25 -21 -25 -42 0 -26 7 -33 52 -55 72 -34 71 -55
-2 -47 -43 4 -55 3 -55 -8 0 -40 113 -49 148 -12 40 43 27 67 -55 96 -59 21
-54 36 11 36 56 0 73 19 31 35 -35 13 -75 12 -105 -3z"/>
<path d="M335 600 c-10 -17 2 -24 38 -25 l32 0 5 -80 c4 -62 8 -80 20 -80 12
0 16 17 18 83 l3 83 32 -3 c23 -2 32 1 32 12 0 12 -18 16 -87 18 -55 2 -89 -1
-93 -8z"/>
<path d="M1372 597 c-6 -7 -27 -50 -46 -95 -30 -70 -33 -84 -20 -89 9 -3 26 5
43 21 37 36 92 36 115 1 20 -30 46 -33 46 -5 0 26 -47 140 -68 163 -18 20 -55
22 -70 4z m63 -97 c-7 -11 -48 -14 -57 -4 -3 3 1 23 10 45 l16 41 18 -36 c10
-20 16 -41 13 -46z"/>
<path d="M2980 513 l0 -98 70 3 c49 3 70 8 70 17 0 14 -48 26 -77 19 -19 -5
-20 -1 -15 75 l5 81 -27 0 -26 0 0 -97z"/>
<path d="M3157 603 c-4 -3 -7 -47 -7 -97 l0 -92 73 4 c103 6 127 33 28 34
l-51 0 0 79 c0 70 -2 79 -18 79 -10 0 -22 -3 -25 -7z"/>
<path d="M3332 514 l3 -96 68 0 c37 1 74 1 82 1 8 1 15 8 15 16 0 15 -21 20
-71 16 -28 -2 -58 24 -43 39 5 5 29 10 53 12 60 4 68 28 9 28 -52 0 -73 12
-64 35 5 15 15 16 61 10 51 -6 55 -5 55 14 0 20 -6 21 -85 21 l-86 0 3 -96z
m43 16 c3 -5 1 -10 -4 -10 -6 0 -11 5 -11 10 0 6 2 10 4 10 3 0 8 -4 11 -10z"/>
<path d="M3745 599 c-10 -15 2 -23 33 -24 27 0 27 -1 32 -79 3 -51 10 -81 17
-84 18 -5 35 47 28 85 -3 17 -3 44 1 58 5 21 11 26 30 22 28 -5 49 7 40 22 -9
14 -172 15 -181 0z"/>
<path d="M3954 575 c-14 -79 9 -187 35 -159 12 12 14 25 12 117 -1 69 -3 77
-21 77 -14 0 -21 -9 -26 -35z"/>
<path d="M4284 595 c-8 -20 0 -181 9 -177 4 1 39 2 77 2 56 0 70 3 70 15 0 15
-31 20 -87 15 -22 -1 -23 2 -23 79 0 75 -2 81 -20 81 -11 0 -23 -7 -26 -15z"/>
<path d="M4464 514 l1 -97 80 2 c77 2 108 11 86 26 -6 3 -26 6 -44 7 -49 0
-67 8 -67 28 0 15 9 19 48 22 34 2 47 7 47 18 0 11 -12 15 -45 15 -39 0 -45 3
-48 23 -3 22 -1 23 55 20 46 -2 58 0 58 12 0 12 -18 16 -87 18 l-86 3 2 -97z"/>
<path d="M2306 525 c-21 -21 -20 -28 5 -51 27 -24 54 -8 54 32 0 34 -33 45
-59 19z"/>
</g>
</svg>
